<?xml version="1.0" encoding="utf-8"?>
<svg xmlns="http://www.w3.org/2000/svg" viewBox="0 0 1024 1024">
<title>Lebua Logomark</title>
<path d="M785.443 821.088c-2.407 38.58-15.057 81.152-55.174 106.014-29.084 18.015-85.337 30.452-125.336 4.777-40.003-25.456-55.358-60.855-58.911-97.539-2.958-31.25 11.891-59.836 25.512-71.594 14.472-12.564 27.842-20.954 51.92-21.242 29.849-.514 59.045 20.477 66.746 54.522 6.271 28.25 3.583 48.215-12.782 69.875 0 0 69.295-15.558 57.611-89.401-7.169-45.903-38.121-64.232-66.111-70.123 5.07-5.161 7.059-11.047 7.059-19.832 0-16.077-13.103-29.144-29.354-29.144-16.262 0-29.247 13.068-29.247 29.144 0 5.235 2.237 12.245 4.445 16.438-13.563 1.52-63.057 10.671-81.319 61.215 0 0 22.747-46.384 1.165-170.984 0 0 104.379-2.745 160.152 40.878 40.615 31.888 88.945 99.396 83.624 186.996M550.721 457.443c17.289-33.708 50.016-61.735 82.035-63.557 33.469-1.882 63.216 20.332 70.041 56.996 5.557 30.155-.07 54.688-23.789 78.829-20.643 21.124-91.823 45.106-141.121 42.228 0-.001-16.924-56.199 12.834-114.496m-43.279 344.67c2.64-15.981 6.345-64.439-2.551-117.679-9.447-55.326-29.661-100.169-41.597-129.592-21.371-52.667-19.293-102.734-19.071-119.345.691-58.915 24.022-98.138 29.32-107.785 30.656-55.458 78.39-53.369 78.39-53.369-17.19 39.366-60.609 131.996-61.78 213.582-.962 64.617 23.634 117.794 32.275 180.435 11.927 88.038-14.986 133.753-14.986 133.753M379.613 636.47c19.944 48.558 28.666 70.256 31.384 103.178 2.725 31.769-11.17 73.191-49.857 85.833-34.25 11.032-67.394-3.284-97.022-42.166-22.517-29.74-35.547-71.047-37.522-105.386-2.403-41.322 7.861-91.075 40.088-122.837 33.255-32.556 59.056-36.094 59.056-36.094 9.962 22.222 41.52 87.371 53.873 117.472m399.123 33.055c-28.704-42.472-63.275-77.487-143.997-88.787 0 0 102.867-5.922 111.763-103.248 6.526-71.152-39.045-100.99-65.035-111.136 1.25 0 2.566.055 3.823.055 26.94 0 48.881-21.852 48.881-48.843 0-22.159-14.868-40.961-35.134-47.043 11.474-8.859 47.043-42.82 52.202-97.857 3.745-40.695-5.731-90.093-69.332-123.381 0 0 39.888 45.601 17.13 123.381-16.227 55.58-77.887 123.524-95.956 147.262-17.954 23.693-58.401 68.813-71.405 107.604 0 0 25.993-68.049 46.648-122.741 19.345-51.284 40.162-129.33-53.096-173.855 0 0 31.347 24.536 38.021 67.508 3.724 24.462-1.746 48.711-8.401 67.97 0 0-28.208.352-52.374 14.391-25.631 14.99-45.086 38.125-62.646 87.486-15.974 44.739-16.317 98.743-7.443 147.564 0 0-19.212-43.068-17.43-107.391 1.838-69.109 11.588-109.452 22.943-144.578 0 0-35.337 70.078-39.859 142.452-3.771 59.868 6.648 89.144 23.741 124.329 0 0-24.248-34.993-75.18-36.853 0 0-9.868-25.401-16.827-45.643-8.101-23.438-3.797-47.46 12.897-61.504 5.132-4.274 21.6-19.352 52.219-14.316 0 0-22.166-16.114-52.977-5.727-16.45 5.597-28.57 14.786-37.448 30.33-13.215 22.98-10.127 42.151 12.605 100.063 0 0-58.397 13.004-88.495 68.814-15.219 28.301-34.345 72.352-13.755 154.82 12.358 49.309 39.648 96.673 84.01 118.32 29.066 14.382 99.702 15.018 123.167-49 12.109-33.076 13.369-64.538-20.669-156.335-10.36-27.494-40.554-100.66-45.542-114.244 0 0 65.996 8.441 105.193 108.776 18.417 47.516 29.369 101.81 28.215 171.588-.843 50.589-16.228 88.975-34.449 109.656-21.331 24.275-43.46 31.525-62.876 29.971-14.827-1.039-21.785-14.276-25.608-20.934-3.875-6.733-6.138-13.316-13.792-6.733-7.576 6.733-7.576 20.047-.939 25.901 6.655 5.642 27.99 24.709 72.589 7.961 55.566-20.791 82.594-93.716 96.393-131.989 0 0-7.809 61.866 36.065 111.198 29.768 33.376 63.929 51.812 114.895 49.778 77.573-3.106 124.546-60.89 139.343-113.519 13.456-48.069 11.585-127.174-32.078-191.521" fill="#b19254"/></svg>